<?xml version="1.0" encoding="utf-8"?>
<!-- Generator: Adobe Illustrator 19.0.0, SVG Export Plug-In . SVG Version: 6.00 Build 0)  -->
<svg version="1.1" id="Layer_1" xmlns="http://www.w3.org/2000/svg" xmlns:xlink="http://www.w3.org/1999/xlink" x="0px" y="0px"
	 viewBox="-337 139 284 284" style="enable-background:new -337 139 284 284;" xml:space="preserve">
<style type="text/css">
	.st0{fill:#BEE3F6;}
	.st1{fill:#2D3656;}
	.st2{fill:#47211C;}
	.st3{fill:#F7C899;}
	.st4{fill:#EDC093;}
	.st5{fill:#D9B087;}
	.st6{fill:#5C312A;}
	.st7{fill:#D9AA7C;}
	.st8{fill:#FFFFFF;}
	.st9{fill:#424C71;}
	.st10{fill:#222B4A;}
	.st11{fill:#E0E0E0;}
</style>
<g>
	<ellipse class="st0" cx="-195" cy="287.1" rx="142" ry="135.9"/>
	<g>
		<path class="st1" d="M-235,353.8c-8.9,1-13.2,2.3-14.9,12.5l-6.3,43.4c14.1,6.5,29.5,10.8,45.7,12.5l-7.1-59.4
			C-218.3,356.9-226.1,352.9-235,353.8z"/>
		<path class="st2" d="M-264.5,185.3c-15.4,47.4,9.8,86.6,9.8,86.6s-3.4-52.3,16.2-67L-264.5,185.3z"/>
		<g>
			<path class="st3" d="M-104,253.1c0,11.6-11.9,27.6-21.4,27.6c-9.5,0-13-16.1-13-27.6c0-11.6,7.7-13.7,17.2-13.7
				C-111.7,239.5-104,241.6-104,253.1z"/>
			<path class="st4" d="M-107.1,254.2c0,9.5-9.8,21.1-17.6,21.1s-10.7-11.6-10.7-21.1c0-9.5,6.3-11.2,14.1-11.2
				C-113.4,243-107.1,244.7-107.1,254.2z"/>
			<path class="st3" d="M-122.7,259.6c0.6,1.5-1.7,3.7-5.2,5c-3.5,1.3-6.8,1.2-7.4-0.3c-0.6-1.5,1.7-3.7,5.2-5
				C-126.6,258-123.3,258.2-122.7,259.6z"/>
			<path class="st5" d="M-121.3,243c-5.2,0-9.8,0.8-12.2,4.1c2.6-1.7,6.2-2.2,10.2-2.2c7.8,0,14.1,1.7,14.1,11.2
				c0,5.2-3,11.1-6.9,15.3c4.9-4.2,9-11.2,9-17.3C-107.1,244.7-113.4,243-121.3,243z"/>
		</g>
		<path class="st3" d="M-179.9,356.7c0,8.2-7,8.1-15.6,8.1l0,0c-8.6,0-15.6,0.2-15.6-8.1v-60c0-8.2,7-14.9,15.6-14.9l0,0
			c8.6,0,15.6,6.7,15.6,14.9V356.7z"/>
		<path class="st5" d="M-211.1,347.5c1.1,0,2.2,0.1,3.3,0.1c10,0,19.4-1.6,27.8-4.4v-46.4c0-8.2-7-14.9-15.6-14.9
			c-8.6,0-15.6,6.7-15.6,14.9V347.5z"/>
		<path class="st3" d="M-130.7,266L-130.7,266c0,0-4.7-23-6-48.7c-0.8-16.1-10.8-40-58.8-40c-48,0-58.4,23.9-58.8,40
			c-0.4,19.6-6,48.7-6,48.7l0,0c-2.6,7.6-4.2,14.7-4.5,20.4c-1.5,29.6,29.5,54.5,69.2,54.5s70.7-24.9,69.2-54.5
			C-126.6,280.7-128.1,273.7-130.7,266z"/>
		<path class="st6" d="M-126.2,185.3c15.4,47.4-9.8,86.6-9.8,86.6s3.4-52.3-16.2-67c0,0-68.9,44.4-117,13.9
			c-20-12.7-32.4-52.2-32.4-52.2s22.2-11.7,48.7-10c0,0-4.3-6.5-2.6-11.4c0,0,52.1-1.2,68.3,21.5c0,0-2.6-9.7,0-13.9
			c0,0,14.6,8.8,18.8,13.9C-163,173.3-141.8,186.2-126.2,185.3z"/>
		<path class="st7" d="M-211.5,266.8c0,0-9.9,18.9-23.9,15.7c0,0,8.9,18.9,23.9,13.3c0,0-9.2-2.3-11.9-8.3
			C-223.4,287.6-213.1,286.3-211.5,266.8z"/>
		<g>
			<path class="st2" d="M-191.7,232.4c0,0,0.5-0.4,1.5-0.8c1-0.5,2.4-1.1,4.2-1.6c0.9-0.2,1.9-0.5,2.9-0.7c1.1-0.2,2.2-0.4,3.3-0.4
				c0.6-0.1,1.2-0.1,1.8-0.1c0.6,0,1.2,0,1.8,0c1.2,0,2.5,0.1,3.8,0.3c1.2,0.2,2.5,0.4,3.7,0.7c1.2,0.3,2.4,0.6,3.5,1.1
				c1.1,0.5,2.2,0.9,3.1,1.5c0.9,0.6,1.9,1,2.6,1.7c0.7,0.6,1.4,1.2,2,1.7c0.5,0.6,1,1.1,1.3,1.5c0.7,0.9,1,1.4,1,1.4
				s-0.6-0.2-1.6-0.6c-0.5-0.2-1.1-0.4-1.8-0.7c-0.7-0.2-1.5-0.5-2.3-0.7c-0.4-0.1-0.8-0.3-1.3-0.4c-0.4-0.1-0.9-0.2-1.4-0.4
				c-0.9-0.3-2-0.5-3-0.7c-1-0.3-2.1-0.4-3.2-0.6c-0.5-0.1-1.1-0.2-1.7-0.3l-1.7-0.2c-1.1-0.1-2.3-0.3-3.4-0.4
				c-1.1-0.1-2.2-0.2-3.3-0.3c-0.5,0-1.1-0.1-1.6-0.1c-0.5,0-1-0.1-1.5-0.1c-1-0.1-2-0.1-2.9-0.2c-1.8-0.1-3.3-0.2-4.4-0.3
				c-0.5,0-1-0.1-1.3-0.1C-191.5,232.4-191.7,232.4-191.7,232.4z"/>
		</g>
		<g>
			<path class="st2" d="M-220.6,235.3c0,0-0.1,0-0.4,0.1c-0.3,0-0.6,0.1-1.1,0.1c-0.9,0.1-2.3,0.3-3.8,0.4c-1.5,0.1-3.3,0.3-5.2,0.5
				c-0.9,0.1-1.9,0.2-2.9,0.3c-1,0.1-1.9,0.2-2.9,0.4c-1,0.2-2,0.2-2.9,0.4c-0.9,0.2-1.9,0.3-2.8,0.5c-0.9,0.2-1.8,0.3-2.6,0.6
				c-0.8,0.2-1.6,0.3-2.3,0.6c-0.7,0.2-1.4,0.4-2,0.6c-0.6,0.2-1.1,0.4-1.6,0.5c-0.9,0.3-1.5,0.4-1.5,0.4s0.3-0.5,0.9-1.2
				c0.3-0.4,0.7-0.9,1.1-1.4c0.5-0.5,1.1-1,1.7-1.5c0.6-0.6,1.4-1,2.2-1.5c0.8-0.5,1.8-0.9,2.7-1.3c1-0.4,2-0.7,3.1-1
				c1.1-0.3,2.2-0.4,3.3-0.6c1.1-0.1,2.2-0.2,3.3-0.2c0.5,0,1.1,0,1.6,0c0.5,0,1.1,0,1.6,0.1c2,0.2,3.9,0.6,5.5,1.1
				c1.6,0.5,2.8,1,3.7,1.5C-221,234.9-220.6,235.3-220.6,235.3z"/>
		</g>
		<g>
			<path class="st2" d="M-219.6,271.7c0,0,0-0.2-0.1-0.6c-0.1-0.4-0.2-1-0.3-1.7c-0.2-0.7-0.4-1.6-0.7-2.5c-0.1-0.5-0.3-1-0.6-1.5
				c-0.1-0.3-0.2-0.5-0.3-0.8c-0.1-0.3-0.3-0.5-0.4-0.8c-0.5-1.1-1.3-2.2-2.1-3.3c-0.9-1.1-1.8-2.1-3-3c-1.1-0.9-2.4-1.7-3.8-2.2
				c-1.4-0.5-2.9-0.8-4.4-0.8c-1.6,0-2.9,0.3-4.4,0.8c-1.4,0.5-2.7,1.3-3.8,2.2c-1.2,0.9-2.1,2-3,3c-0.8,1.1-1.5,2.2-2.1,3.3
				c-0.1,0.3-0.3,0.5-0.4,0.8c-0.1,0.3-0.2,0.5-0.3,0.8c-0.2,0.5-0.4,1-0.6,1.5c-0.3,1-0.5,1.8-0.7,2.5c-0.2,0.7-0.3,1.3-0.3,1.7
				c-0.1,0.4-0.1,0.6-0.1,0.6s0-0.2-0.1-0.6c0-0.4-0.1-1-0.1-1.7c0-0.8,0-1.7,0.2-2.7c0.1-0.5,0.2-1.1,0.3-1.7
				c0.1-0.6,0.3-1.2,0.5-1.8c0.4-1.3,1-2.6,1.8-3.9c0.8-1.3,1.8-2.7,3.1-3.8c1.3-1.1,2.7-2.2,4.5-2.9c1.7-0.7,3.7-1.1,5.5-1.1
				c1.9,0,3.8,0.4,5.5,1.1c1.7,0.7,3.2,1.8,4.5,2.9c1.3,1.1,2.3,2.5,3.1,3.8c0.8,1.3,1.4,2.6,1.8,3.9c0.2,0.6,0.4,1.2,0.5,1.8
				c0.1,0.6,0.3,1.1,0.3,1.7c0.2,1,0.2,2,0.2,2.7c0,0.8-0.1,1.3-0.1,1.7C-219.6,271.5-219.6,271.7-219.6,271.7z"/>
		</g>
		<g>
			<path class="st2" d="M-156.9,273.5c0,0,0-0.3-0.1-0.7c-0.1-0.5-0.2-1.2-0.4-2.1c-0.2-0.9-0.4-1.9-0.8-3.1
				c-0.2-0.6-0.4-1.2-0.7-1.9c-0.1-0.3-0.3-0.7-0.4-1c-0.2-0.3-0.3-0.7-0.5-1c-0.6-1.4-1.5-2.7-2.5-4.1c-1.1-1.3-2.2-2.7-3.7-3.8
				c-1.4-1.1-3-2.1-4.8-2.8c-1.7-0.7-3.6-1-5.5-1c-2,0-3.7,0.4-5.5,1c-1.8,0.7-3.3,1.7-4.8,2.8c-1.4,1.1-2.6,2.5-3.7,3.8
				c-1,1.4-1.9,2.8-2.5,4.1c-0.2,0.3-0.3,0.7-0.5,1c-0.1,0.3-0.3,0.7-0.4,1c-0.3,0.6-0.5,1.3-0.7,1.9c-0.4,1.2-0.6,2.2-0.8,3.1
				c-0.2,0.9-0.3,1.6-0.4,2.1c-0.1,0.5-0.1,0.7-0.1,0.7s0-0.3,0-0.7c0-0.5-0.1-1.2-0.1-2.1c0-0.5,0-1,0.1-1.5c0-0.6,0.1-1.2,0.2-1.8
				c0.1-0.6,0.2-1.3,0.4-2c0.1-0.4,0.2-0.7,0.3-1.1c0.1-0.4,0.3-0.7,0.4-1.1c0.5-1.5,1.3-3.1,2.2-4.7c1-1.6,2.2-3.2,3.8-4.6
				c0.4-0.4,0.8-0.7,1.2-1c0.4-0.3,0.8-0.7,1.3-0.9c0.5-0.3,0.9-0.6,1.4-0.9c0.5-0.2,1-0.5,1.5-0.7c2-0.8,4.5-1.3,6.6-1.3
				c2.3,0,4.5,0.5,6.6,1.4c0.5,0.2,1,0.5,1.5,0.7c0.5,0.3,0.9,0.6,1.4,0.8c0.5,0.3,0.9,0.6,1.3,0.9c0.4,0.3,0.8,0.6,1.2,1
				c1.6,1.4,2.7,3,3.8,4.6c1,1.6,1.7,3.2,2.2,4.7c0.1,0.4,0.3,0.8,0.4,1.1c0.1,0.4,0.2,0.7,0.3,1.1c0.2,0.7,0.3,1.4,0.4,2
				c0.2,1.3,0.3,2.4,0.3,3.3c0.1,0.9-0.1,1.6-0.1,2.1C-156.9,273.3-156.9,273.5-156.9,273.5z"/>
		</g>
		<path class="st8" d="M-246.3,305.5c0,0,19.3,28.5,62.2,17.4c24.8-6.4,33.4-29.3,33.4-29.3S-181.4,306-246.3,305.5z"/>
		<path class="st9" d="M-145.8,353.7H-234c-4.1,0-7.3,4.2-7,9.4l2.2,53.3c13.8,4.3,28.5,6.6,43.9,6.6c19.8,0,38.6-3.9,55.7-10.9
			l0.5-49C-138.6,357.9-141.7,353.7-145.8,353.7z"/>
		<path class="st10" d="M-152.1,361c-8.6,2.5-7.7,13.4-6.4,24.7c1,7.9,4.4,31.5,4.4,31.5c5.1-1.5,10-3.2,14.8-5.1l0.5-46l-1.5-4.8
			C-142.2,355.7-143.5,358.5-152.1,361z"/>
		<path class="st10" d="M-201.3,374.4c-0.5,0-1,1.2-1,2.6v45.8c0.6,0,1.3,0.1,1.9,0.1V377C-200.3,375.5-200.8,374.4-201.3,374.4z"/>
		<polygon class="st8" points="-201.3,408.9 -174.7,353.7 -215.3,353.7 		"/>
		<polygon class="st10" points="-174.7,353.7 -164.5,367.7 -178.9,375.7 -174.7,392.3 -201.3,417.9 -201.3,408.9 		"/>
		<polygon class="st10" points="-215.3,353.7 -225.5,367.7 -215.2,375.6 -218.9,390 -201.3,417.9 -201.3,408.9 		"/>
		<polygon class="st11" points="-195.5,353.7 -189.9,364.8 -172.9,356.2 -179.9,347.5 		"/>
		<polygon class="st11" points="-205.5,353.7 -212.9,363.1 -218.9,353.7 -211.1,347.5 		"/>
		<path class="st9" d="M-130.7,360.5c-1.8-5.7-10.3-8.3-18.9-5.8c-8.6,2.5-14.1,9.2-12.3,14.9l15.6,45.3c10.3-3.6,20-8.3,29-13.9
			L-130.7,360.5z"/>
	</g>
</g>
</svg>
