<svg version="1.1" id="Layer_1" xmlns="http://www.w3.org/2000/svg" xmlns:xlink="http://www.w3.org/1999/xlink" x="0px" y="0px"
	 viewBox="0 0 289.1 172.3" style="enable-background:new 0 0 289.1 172.3;" xml:space="preserve">
<style type="text/css">
	.st0{fill:none;stroke:#fffcfd;stroke-miterlimit:10;}
</style>
<g id="XMLID_1_">
	<path id="XMLID_2_" class="st0" d="M2.6,152.6c1.5-23.7,7.1-50.8,24.6-68.2C33.6,78,41.6,73.9,50.4,72c13.1-2.7,24.9,1.9,31.3,13.9
		c3.9,7.4,5.3,15.5,5.6,23.8c0.4,11.6,1.2,24.6-2.6,35.7C81,156.1,70.4,164.8,60,168.1c-6,1.9-14,3.4-17.9-2.8
		c-2.5-4.1-2.3-8.3-0.8-12.7c6.6-18,25.4-29.9,40.4-40.3c16.4-11.6,31.5-24.8,41.5-42.4c5.8-10,10-21,12.3-32.2
		c2-9.6,3.8-23.8-4.3-31.3c-7.9-7.3-18.2-4.9-24.4,2.9c-6.2,7.8-8.7,17.2-8.3,27.1c0.4,10.5,4.9,20,9.2,29.3
		c4.8,10.2,9.6,20.5,11.8,31.5c2.5,12.1,4.7,25.5,3.5,37.9c-1.1,11.4-8.3,26.3-19.5,30.5c-6.8,2.5-15.4-1.5-17.5-8.6
		c-1.6-5.6,1.3-12.2,4.5-16.8c5.5-7.5,13.5-14.9,21.1-20.3c16.7-11.9,31-24.9,40.1-43.7c4.5-9.4,7.2-19.4,7.6-29.9
		c0.3-6.4-0.1-14.1-5.1-18.7c-2.9-2.7-6.4-3.3-9.2-2.2c-2.2,0.9-3.5,2.8-5.1,6.6c-2.9,7.1-3.3,13.2-3.8,20.4c0,0,0,0.6-1.3,17.6
		c0,0-0.5,7.2-1.6,18.6c-1,10.4-2,17.3-4.7,37c-4.4,32.1-5.5,41-5.1,41c0.4,0.1,2.2-7.8,2.9-10.9c0.8-3.6,1.1-5.6,2.4-8.7
		c1-2.6,1.8-4.5,3.7-6.4c0.8-0.8,4.3-4.1,7.6-3.1c2,0.6,3,2.6,4.2,5c1.5,3,1.7,5.9,1.8,7.2c0,0.6,0,1.3,0,2.6c0,1,0,3.7-0.3,6
		c-0.3,3.3-1.3,7.1-1.7,7.1c-0.4,0-0.5-3.8,0-7.2c0.1-1,0.5-3.3,1.6-6.4c0.8-2.1,1.8-4.9,3.8-7.6c2-2.7,5-6.6,8.7-6.2
		c4.6,0.4,7,7.1,7.2,7.7c1,2.7,0.9,5.3,0.8,7.8c-0.1,2.6-0.5,4.5-0.8,5.8c-0.7,3.2-2,6.9-2.3,6.8c-0.4-0.1,0.3-5.5,1.4-10.2
		c1.6-6.6,2.6-10.9,6.3-14.3c1.1-1,4.7-4.3,8.1-3.3c2.6,0.8,4,3.9,4.5,5c0.9,1.9,1,3.7,1.1,5.2c0.1,1.6,0.1,2.8,0,3.9
		c-0.1,1.8-0.3,3.3-0.6,4.6c-0.7,3.6-2,8.7-2.4,8.6c-0.4-0.1-0.1-5.8,1.3-11.5c1.4-5.8,3.2-13,8.7-15.2c0.8-0.3,3.8-1.4,6.2,0
		c2.9,1.7,3.2,6.1,3.5,9.6c0.2,2.7-0.1,5.1-0.2,6.4c-0.1,1.1-0.4,2.7-0.9,4.5c-0.6,2.2-1.8,5.7-2.2,5.6c-0.4-0.1,0-5,1.3-9.8
		c1-3.4,2.3-8.4,6.4-12.5c1.8-1.8,3.3-2.7,4.6-3.3c1.3-0.5,3.4-1.4,5.9-0.6c2.2,0.7,3.4,2.4,3.9,3.1c1.4,1.9,1.6,3.8,1.7,5.1
		c0.1,1,0.2,2.9-0.9,6.9c-1.3,4.7-2.8,7.5-2.5,7.6c0.3,0.2,2.3-3.6,5.6-8.5c2.1-3,3.7-5.1,5.7-7.7c2.7-3.5,6.1-7.5,10.2-11.9
		c4-4.3,8.7-9.3,14.5-13.8c2.9-2.2,5.7-4.1,6-4.2c1.1-0.7,3.2-2,5.9-3.4c1.1-0.6,6.3-3.2,13.7-5.4c1.9-0.5,3.4-0.9,4.5-1.2"/>
</g>
</svg>
